<svg xmlns="http://www.w3.org/2000/svg" width="256" height="256">
 <path id="jayd3v-spider" d="M 75.08803,0 C 59.43262,11.3842 33.6895,37.73384 46.14548,75.33591 c 14.347,-3.8555 38.93346,-2.8552 55.39752,1.7246 a 31.19869,35.62698 0 0 0 -0.8244,1.3262 C 78.55008,75.17831 55.09321,75.94721 42.1998,82.45901 25.39464,49.14731 38.8707,21.19502 48.4793,8.433589 L 48.18802,8.224599 C 36.38809,17.36058 9.743126,32.33644 30.94114,95.65821 c 26.43853,-9.9522 42.08314,-11.0772 62.40282,-7.5879 -5.61904,3.4356 -11.41605,6.3348 -17.87247,8.3984 -8.60082,2.7491 -18.36513,4.05769 -30.40268,3.334 l -8.45319,-0.7969 c -8.14071,31.73359 -4.3958,68.27549 10.87311,102.13869 l 0.85312,-0.3535 c -6.05059,-31.6564 -8.71632,-61.2986 -2.35019,-87.8769 19.75143,1.9129 36.49222,-2.4459 51.68357,-10.2754 a 31.19869,35.62698 0 0 0 0.1333,0.7695 C 86.16694,109.9898 72.23689,114.0716 53.89328,114.0762 49.50576,159.978 60.35021,210.7769 84.6959,256 l 0.97197,-0.6328 C 72.87318,211.8012 66.18639,149.1375 71.58935,123.9551 c 11.55036,-1.4039 21.17471,-4.9089 29.97415,-10.3047 a 31.19869,35.62698 0 0 0 0.9598,1.3535 c -6.38396,10.4219 -8.90655,25.4641 -8.90655,41.6074 0,22.3933 17.19195,74.6446 34.38325,74.6446 17.1912,0 34.3831,-52.2513 34.3831,-74.6446 0,-16.0504 -2.4909,-31.0149 -8.7936,-41.4297 a 31.19869,35.62698 0 0 0 0.287,-0.3789 c 8.282,4.75 17.3481,7.8497 28.0648,9.1524 5.4031,25.1824 -1.2836,87.8461 -14.0785,131.4121 L 168.8349,256 c 24.346,-45.2231 35.19,-96.0221 30.8025,-141.9238 -17.1626,0 -30.4488,-3.5909 -41.6266,-9.4395 a 31.19869,35.62698 0 0 0 0.3652,-1.9726 c 15.1778,7.813 31.9028,12.1608 51.6321,10.25 6.3663,26.5784 3.7004,56.2205 -2.3501,87.8769 l 0.8531,0.3535 c 15.2691,-33.8633 19.0138,-70.4051 10.8732,-102.1387 l -8.4533,0.7969 c -12.0376,0.7237 -21.8019,-0.5849 -30.4027,-3.334 C 174.072,94.4051 168.2749,91.506 162.6559,88.0703 182.9751,84.581 198.62,85.706 225.0588,95.6582 246.257,32.3365 219.6117,17.36056 207.8119,8.224599 l -0.2913,0.20899 c 9.6087,12.761421 23.0846,40.713721 6.2794,74.025421 -12.8658,-6.4982 -36.2518,-7.2768 -58.3792,-4.0918 a 31.19869,35.62698 0 0 0 -0.8367,-1.3438 c 16.4632,-4.5493 40.9604,-5.5329 55.2703,-1.6875 C 222.3104,37.7338 196.5673,11.38421 180.9119,0 l -0.847,0.2460899 C 190.8886,11.32012 204.9283,34.82163 196.953,63.46481 c -11.9129,-1.863 -33.598,1.3128 -48.2957,5.3262 a 31.19869,35.62698 0 0 0 -7.3376,-5.6191 l -6.5993,-12.086 c 0.4024,3.3429 -0.3254,6.4892 -2.1575,8.9395 A 31.19869,35.62698 0 0 0 128,59.29301 a 31.19869,35.62698 0 0 0 -4.688,0.7753 c -1.7412,-2.4252 -2.4258,-5.5048 -2.0324,-8.7714 l -6.4969,11.8984 a 31.19869,35.62698 0 0 0 -7.3233,5.625 C 92.76038,64.79211 70.99085,61.59701 59.04686,63.46481 51.07163,34.82166 65.1113,11.32011 75.93497,0.2460899 Z"/>
</svg>
